<?xml version="1.0" encoding="UTF-8"?>
<svg width="14px" height="16px" viewBox="0 0 14 16" version="1.1" xmlns="http://www.w3.org/2000/svg" xmlns:xlink="http://www.w3.org/1999/xlink" xmlns:sketch="http://www.bohemiancoding.com/sketch/ns">
    <!-- Generator: Sketch 3.4.2 (15855) - http://www.bohemiancoding.com/sketch -->
    <title>binder-icon copy</title>
    <desc>Created with Sketch.</desc>
    <defs></defs>
    <g id="Page-1" stroke="none" stroke-width="1" fill="none" fill-rule="evenodd" sketch:type="MSPage">
        <g id="binder-icon-copy" sketch:type="MSArtboardGroup">
            <rect id="Rectangle-1" stroke="#006CB7" fill="#006CB7" sketch:type="MSShapeGroup" x="2" y="0" width="12" height="16"></rect>
            <rect id="Rectangle-2" fill="#FFFFFF" sketch:type="MSShapeGroup" x="7" y="2" width="5" height="3"></rect>
            <g id="Rectangle-3-+-Rectangle-7" sketch:type="MSLayerGroup" transform="translate(1.000000, 11.500000) scale(1, -1) translate(-1.000000, -11.500000) translate(0.000000, 10.000000)" fill="#006CB7">
                <path d="M0,0 L2,0 L2,1 L0,1 L0,0 Z M0,1 L1,1 L1,2 L0,2 L0,1 Z" id="Rectangle-3" sketch:type="MSShapeGroup"></path>
                <rect id="Rectangle-7" sketch:type="MSShapeGroup" x="1" y="2" width="1" height="1"></rect>
            </g>
            <g id="Rectangle-3-+-Rectangle-7" sketch:type="MSLayerGroup" transform="translate(1.000000, 4.500000) scale(1, -1) translate(-1.000000, -4.500000) translate(0.000000, 3.000000)" fill="#006CB7">
                <path d="M0,0 L2,0 L2,1 L0,1 L0,0 Z M0,1 L1,1 L1,2 L0,2 L0,1 Z" id="Rectangle-3" sketch:type="MSShapeGroup"></path>
                <rect id="Rectangle-7" sketch:type="MSShapeGroup" x="1" y="2" width="1" height="1"></rect>
            </g>
        </g>
    </g>
</svg>