<?xml version="1.0" encoding="utf-8"?>
<!-- Generator: Adobe Illustrator 16.0.4, SVG Export Plug-In . SVG Version: 6.00 Build 0)  -->
<!DOCTYPE svg PUBLIC "-//W3C//DTD SVG 1.1//EN" "http://www.w3.org/Graphics/SVG/1.1/DTD/svg11.dtd">
<svg version="1.1" id="Layer_1" xmlns="http://www.w3.org/2000/svg" xmlns:xlink="http://www.w3.org/1999/xlink" x="0px" y="0px"
	 width="30px" height="30px" viewBox="0 0 30 30" enable-background="new 0 0 30 30" xml:space="preserve">
<path opacity="0.6" fill="#020202" enable-background="new    " d="M15,0C6.716,0,0,6.716,0,15c0,8.283,6.716,15,15,15
	c8.285,0,15-6.717,15-15C30,6.716,23.285,0,15,0z M5.734,14.319L15,5.053l9.268,9.266H5.734z"/>
<g enable-background="new    ">
	<path fill="#FFFFFF" d="M7.664,17.232H5.89v-0.641h4.317v0.641H8.425v5.19H7.664V17.232z"/>
	<path fill="#FFFFFF" d="M14.007,20.295c0,1.548-1.072,2.223-2.085,2.223c-1.133,0-2.007-0.83-2.007-2.154
		c0-1.401,0.917-2.223,2.077-2.223C13.193,18.141,14.007,19.014,14.007,20.295z M10.685,20.338c0,0.917,0.528,1.609,1.271,1.609
		c0.728,0,1.272-0.684,1.272-1.627c0-0.709-0.354-1.609-1.255-1.609C11.074,18.711,10.685,19.542,10.685,20.338z"/>
	<path fill="#FFFFFF" d="M14.97,19.603c0-0.536-0.018-0.969-0.035-1.367h0.684l0.035,0.718h0.017
		c0.312-0.51,0.805-0.812,1.488-0.812c1.013,0,1.773,0.856,1.773,2.128c0,1.506-0.917,2.249-1.903,2.249
		c-0.554,0-1.038-0.242-1.289-0.657h-0.017v2.275H14.97V19.603z M15.723,20.719c0,0.112,0.017,0.216,0.034,0.312
		c0.139,0.527,0.597,0.891,1.142,0.891c0.805,0,1.272-0.657,1.272-1.618c0-0.839-0.441-1.557-1.246-1.557
		c-0.52,0-1.004,0.372-1.15,0.942c-0.026,0.096-0.052,0.208-0.052,0.312V20.719z"/>
	<path fill="#FFFFFF" d="M19.896,19.603c0-0.536-0.018-0.969-0.035-1.367h0.684l0.035,0.718h0.017
		c0.312-0.51,0.805-0.812,1.488-0.812c1.013,0,1.773,0.856,1.773,2.128c0,1.506-0.917,2.249-1.903,2.249
		c-0.554,0-1.038-0.242-1.289-0.657h-0.017v2.275h-0.753V19.603z M20.648,20.719c0,0.112,0.017,0.216,0.034,0.312
		c0.139,0.527,0.597,0.891,1.142,0.891c0.805,0,1.272-0.657,1.272-1.618c0-0.839-0.441-1.557-1.246-1.557
		c-0.52,0-1.004,0.372-1.15,0.942c-0.026,0.096-0.052,0.208-0.052,0.312V20.719z"/>
</g>
</svg>
